<mxfile host="app.diagrams.net" modified="2023-12-24T21:55:25.925Z" agent="Mozilla/5.0 (Windows NT 10.0; Win64; x64) AppleWebKit/537.36 (KHTML, like Gecko) Chrome/120.0.0.0 Safari/537.36 Edg/120.0.0.0" etag="72g4NgMW8tDVz9bfytaQ" version="22.1.11" type="device">
  <diagram name="Страница — 1" id="onY7vt78AWvkJKPeFXBu">
    <mxGraphModel dx="876" dy="497" grid="1" gridSize="10" guides="1" tooltips="1" connect="1" arrows="1" fold="1" page="1" pageScale="1" pageWidth="827" pageHeight="1169" math="0" shadow="0">
      <root>
        <mxCell id="0" />
        <mxCell id="1" parent="0" />
        <mxCell id="lKnOCJSyL3PJGSPaj6sy-1" value="Собаки" style="rounded=1;whiteSpace=wrap;html=1;" vertex="1" parent="1">
          <mxGeometry y="70" width="120" height="60" as="geometry" />
        </mxCell>
        <mxCell id="lKnOCJSyL3PJGSPaj6sy-2" value="Коты" style="rounded=1;whiteSpace=wrap;html=1;" vertex="1" parent="1">
          <mxGeometry x="130" y="70" width="120" height="60" as="geometry" />
        </mxCell>
        <mxCell id="lKnOCJSyL3PJGSPaj6sy-3" value="Хомяки" style="rounded=1;whiteSpace=wrap;html=1;" vertex="1" parent="1">
          <mxGeometry x="260" y="70" width="120" height="60" as="geometry" />
        </mxCell>
        <mxCell id="lKnOCJSyL3PJGSPaj6sy-4" value="Лошади&lt;span style=&quot;white-space: pre;&quot;&gt;&#x9;&lt;/span&gt;" style="rounded=1;whiteSpace=wrap;html=1;" vertex="1" parent="1">
          <mxGeometry x="390" y="70" width="120" height="60" as="geometry" />
        </mxCell>
        <mxCell id="lKnOCJSyL3PJGSPaj6sy-5" value="Верблюды" style="rounded=1;whiteSpace=wrap;html=1;" vertex="1" parent="1">
          <mxGeometry x="520" y="70" width="120" height="60" as="geometry" />
        </mxCell>
        <mxCell id="lKnOCJSyL3PJGSPaj6sy-6" value="Ослы" style="rounded=1;whiteSpace=wrap;html=1;" vertex="1" parent="1">
          <mxGeometry x="650" y="70" width="120" height="60" as="geometry" />
        </mxCell>
        <mxCell id="lKnOCJSyL3PJGSPaj6sy-7" value="" style="endArrow=classic;html=1;rounded=0;exitX=0.5;exitY=1;exitDx=0;exitDy=0;" edge="1" parent="1" source="lKnOCJSyL3PJGSPaj6sy-1">
          <mxGeometry width="50" height="50" relative="1" as="geometry">
            <mxPoint x="390" y="280" as="sourcePoint" />
            <mxPoint x="60" y="180" as="targetPoint" />
          </mxGeometry>
        </mxCell>
        <mxCell id="lKnOCJSyL3PJGSPaj6sy-9" value="" style="endArrow=classic;html=1;rounded=0;exitX=0.5;exitY=1;exitDx=0;exitDy=0;" edge="1" parent="1">
          <mxGeometry width="50" height="50" relative="1" as="geometry">
            <mxPoint x="189.5" y="130" as="sourcePoint" />
            <mxPoint x="189.5" y="180" as="targetPoint" />
          </mxGeometry>
        </mxCell>
        <mxCell id="lKnOCJSyL3PJGSPaj6sy-10" value="" style="endArrow=classic;html=1;rounded=0;exitX=0.5;exitY=1;exitDx=0;exitDy=0;" edge="1" parent="1">
          <mxGeometry width="50" height="50" relative="1" as="geometry">
            <mxPoint x="319.5" y="130" as="sourcePoint" />
            <mxPoint x="319.5" y="180" as="targetPoint" />
          </mxGeometry>
        </mxCell>
        <mxCell id="lKnOCJSyL3PJGSPaj6sy-11" value="" style="endArrow=classic;html=1;rounded=0;exitX=0.5;exitY=1;exitDx=0;exitDy=0;" edge="1" parent="1">
          <mxGeometry width="50" height="50" relative="1" as="geometry">
            <mxPoint x="449.5" y="130" as="sourcePoint" />
            <mxPoint x="449.5" y="180" as="targetPoint" />
          </mxGeometry>
        </mxCell>
        <mxCell id="lKnOCJSyL3PJGSPaj6sy-12" value="" style="endArrow=classic;html=1;rounded=0;exitX=0.5;exitY=1;exitDx=0;exitDy=0;" edge="1" parent="1">
          <mxGeometry width="50" height="50" relative="1" as="geometry">
            <mxPoint x="579.5" y="130" as="sourcePoint" />
            <mxPoint x="579.5" y="180" as="targetPoint" />
          </mxGeometry>
        </mxCell>
        <mxCell id="lKnOCJSyL3PJGSPaj6sy-13" value="" style="endArrow=classic;html=1;rounded=0;exitX=0.5;exitY=1;exitDx=0;exitDy=0;" edge="1" parent="1">
          <mxGeometry width="50" height="50" relative="1" as="geometry">
            <mxPoint x="700" y="130" as="sourcePoint" />
            <mxPoint x="700" y="180" as="targetPoint" />
          </mxGeometry>
        </mxCell>
        <mxCell id="lKnOCJSyL3PJGSPaj6sy-14" value="" style="endArrow=none;html=1;rounded=0;" edge="1" parent="1">
          <mxGeometry width="50" height="50" relative="1" as="geometry">
            <mxPoint x="60" y="180" as="sourcePoint" />
            <mxPoint x="320" y="180" as="targetPoint" />
          </mxGeometry>
        </mxCell>
        <mxCell id="lKnOCJSyL3PJGSPaj6sy-15" value="" style="endArrow=none;html=1;rounded=0;" edge="1" parent="1">
          <mxGeometry width="50" height="50" relative="1" as="geometry">
            <mxPoint x="450" y="180" as="sourcePoint" />
            <mxPoint x="700" y="180" as="targetPoint" />
          </mxGeometry>
        </mxCell>
        <mxCell id="lKnOCJSyL3PJGSPaj6sy-16" value="" style="endArrow=classic;html=1;rounded=0;" edge="1" parent="1">
          <mxGeometry width="50" height="50" relative="1" as="geometry">
            <mxPoint x="200" y="180" as="sourcePoint" />
            <mxPoint x="200" y="230" as="targetPoint" />
          </mxGeometry>
        </mxCell>
        <mxCell id="lKnOCJSyL3PJGSPaj6sy-17" value="" style="endArrow=classic;html=1;rounded=0;" edge="1" parent="1">
          <mxGeometry width="50" height="50" relative="1" as="geometry">
            <mxPoint x="590" y="180" as="sourcePoint" />
            <mxPoint x="590" y="230" as="targetPoint" />
          </mxGeometry>
        </mxCell>
        <mxCell id="lKnOCJSyL3PJGSPaj6sy-18" value="Домашние&lt;br&gt;&amp;nbsp;животные" style="rounded=1;whiteSpace=wrap;html=1;" vertex="1" parent="1">
          <mxGeometry x="140" y="230" width="120" height="60" as="geometry" />
        </mxCell>
        <mxCell id="lKnOCJSyL3PJGSPaj6sy-19" value="Вьючные&lt;br&gt;животные" style="rounded=1;whiteSpace=wrap;html=1;" vertex="1" parent="1">
          <mxGeometry x="530" y="230" width="120" height="60" as="geometry" />
        </mxCell>
        <mxCell id="lKnOCJSyL3PJGSPaj6sy-20" value="" style="endArrow=classic;html=1;rounded=0;" edge="1" parent="1">
          <mxGeometry width="50" height="50" relative="1" as="geometry">
            <mxPoint x="199.5" y="290" as="sourcePoint" />
            <mxPoint x="199.5" y="340" as="targetPoint" />
          </mxGeometry>
        </mxCell>
        <mxCell id="lKnOCJSyL3PJGSPaj6sy-22" value="" style="endArrow=classic;html=1;rounded=0;" edge="1" parent="1">
          <mxGeometry width="50" height="50" relative="1" as="geometry">
            <mxPoint x="589.5" y="290" as="sourcePoint" />
            <mxPoint x="589.5" y="340" as="targetPoint" />
          </mxGeometry>
        </mxCell>
        <mxCell id="lKnOCJSyL3PJGSPaj6sy-23" value="" style="endArrow=none;html=1;rounded=0;" edge="1" parent="1">
          <mxGeometry width="50" height="50" relative="1" as="geometry">
            <mxPoint x="200" y="340" as="sourcePoint" />
            <mxPoint x="590" y="340" as="targetPoint" />
          </mxGeometry>
        </mxCell>
        <mxCell id="lKnOCJSyL3PJGSPaj6sy-24" value="" style="endArrow=classic;html=1;rounded=0;" edge="1" parent="1">
          <mxGeometry width="50" height="50" relative="1" as="geometry">
            <mxPoint x="400" y="340" as="sourcePoint" />
            <mxPoint x="400" y="390" as="targetPoint" />
          </mxGeometry>
        </mxCell>
        <mxCell id="lKnOCJSyL3PJGSPaj6sy-25" value="Животные" style="rounded=1;whiteSpace=wrap;html=1;" vertex="1" parent="1">
          <mxGeometry x="340" y="390" width="120" height="60" as="geometry" />
        </mxCell>
      </root>
    </mxGraphModel>
  </diagram>
</mxfile>
